<svg width="33" height="33" viewBox="0 0 33 33" fill="none" xmlns="http://www.w3.org/2000/svg">
<path fill-rule="evenodd" clip-rule="evenodd" d="M11.3439 5.01191L6.34916 10.0401L8.21764 11.9218L10.0862 13.8036L13.2449 10.6243C14.9823 8.87579 16.4325 7.44511 16.4676 7.44511C16.5028 7.44511 17.9676 8.89039 19.7226 10.6568L22.9136 13.8685L24.7712 11.9976L26.6289 10.1268L21.531 5.07153C18.7272 2.29115 16.4119 0.00897967 16.3859 2.6184e-05C16.3598 -0.00886243 14.0909 2.24644 11.3439 5.01191ZM1.85256 14.631L0 16.4968L1.86913 18.3775L3.73825 20.2581L5.57515 18.4099C6.58545 17.3934 7.41205 16.5321 7.41205 16.4959C7.41205 16.4316 3.80084 12.7653 3.73741 12.7653C3.71969 12.7653 2.87149 13.6049 1.85256 14.631ZM14.6142 14.631L12.7616 16.4968L14.6307 18.3775L16.4999 20.2581L18.369 18.3775L20.2381 16.4968L18.3856 14.631C17.3666 13.6049 16.518 12.7653 16.4999 12.7653C16.4817 12.7653 15.6331 13.6049 14.6142 14.631ZM27.4245 14.647L25.556 16.5286L27.4087 18.3937L29.2615 20.2587L31.1307 18.3771L33 16.4953L31.1465 14.6304L29.2929 12.7653L27.4245 14.647ZM8.18503 20.9779L6.34858 22.8323L8.25934 24.7248C9.31031 25.7656 11.6179 28.0534 13.3875 29.8087L16.6047 33L21.612 27.9592L26.6192 22.9185L24.7657 21.0535C23.7462 20.0278 22.8923 19.1885 22.8682 19.1885C22.844 19.1885 21.4026 20.6264 19.6649 22.3838L16.5055 25.5792L13.2959 22.3514C11.5306 20.5761 10.0718 19.1236 10.054 19.1236C10.0361 19.1236 9.19513 19.958 8.18503 20.9779Z" fill="#F7931A"/>
</svg>
