<svg width="34" height="33" viewBox="0 0 34 33" fill="none" xmlns="http://www.w3.org/2000/svg">
<path fill-rule="evenodd" clip-rule="evenodd" d="M14.2984 0.128668C12.7984 0.39163 10.5262 1.09759 9.38544 1.65503C4.98868 3.80324 1.59894 7.90978 0.399144 12.5414C-0.166761 14.7263 -0.124625 18.7968 0.485453 20.8733C1.85299 25.5284 5.14807 29.3306 9.58615 31.3746C11.9444 32.4608 13.3696 32.8181 15.9326 32.9654C21.0272 33.2587 25.3142 31.687 28.9283 28.201C31.399 25.8178 32.7577 23.5378 33.6235 20.322C34.1621 18.3215 34.1163 14.5567 33.5278 12.443C31.8784 6.51952 27.3544 2.08542 21.3619 0.518285C19.5697 0.0494848 15.9029 -0.152613 14.2984 0.128668ZM20.1633 2.59637C21.6957 2.91055 24.021 3.89897 25.4097 4.82672C26.4595 5.52775 28.4043 7.43684 29.1209 8.46938C31.4124 11.7715 32.2222 16.0251 31.265 19.731C29.8625 25.1607 25.8317 29.0663 20.271 30.3838C18.7339 30.7481 15.3114 30.7323 13.6218 30.3531C8.71898 29.2528 4.7159 25.6954 3.02735 20.9379C2.50663 19.4706 2.45961 19.0989 2.46307 16.4809C2.46673 13.9209 2.52271 13.466 3.00333 12.0923C4.06918 9.04553 6.25749 6.31408 9.01536 4.58779C10.6544 3.56175 11.0123 3.40456 13.1463 2.77227C14.9891 2.22625 17.9903 2.15101 20.1633 2.59637ZM13.757 6.62234V7.81404H11.6195H9.48213V8.99589C9.48213 10.1598 9.49068 10.1777 10.0539 10.1777C10.3684 10.1777 10.8035 10.3036 11.0209 10.4574C11.3966 10.7234 11.416 11.0234 11.416 16.5708C11.416 22.9918 11.4604 22.7751 10.1437 22.7812L9.48213 22.7842V23.966V25.1479H11.6195H13.757V26.3297V27.5116H14.9783H16.1997V26.3297V25.1479H17.014H17.8282V26.3297V27.5116H19.0398H20.2516L20.3121 26.2998L20.3728 25.0882L21.3995 24.7649C23.4977 24.1047 24.7317 22.6061 24.9122 20.4988C24.9808 19.6977 24.889 19.2372 24.4937 18.402C24.0733 17.5135 23.0795 16.4809 22.6447 16.4809C22.5853 16.4809 22.282 16.3872 21.9705 16.2727L21.4044 16.0643L22.2034 15.6308C25.3853 13.9037 24.8599 9.33883 21.3562 8.27004L20.271 7.93912V6.68479V5.43065L19.1005 5.48974L17.93 5.54883L17.8689 6.68144L17.8079 7.81404H17.014H16.2201L16.159 6.68144L16.0979 5.54883L14.9274 5.48974L13.757 5.43065V6.62234ZM19.4911 10.9718C20.5006 11.4169 20.8098 13.0607 20.0583 13.9855C19.54 14.6229 18.5356 14.9026 16.7595 14.904L15.3855 14.9051V12.7093V10.5134L17.1725 10.6255C18.1553 10.6871 19.1988 10.8429 19.4911 10.9718ZM19.5723 17.7542C20.9847 18.3252 21.244 20.3923 20.064 21.6703C19.497 22.2842 19.4775 22.289 17.4899 22.2903L15.4872 22.2917L15.43 19.8788L15.3728 17.4658H17.116C18.1859 17.4658 19.1347 17.5771 19.5723 17.7542Z" fill="#F7931A"/>
</svg>
