<svg width="21" height="33" viewBox="0 0 21 33" fill="none" xmlns="http://www.w3.org/2000/svg">
<path fill-rule="evenodd" clip-rule="evenodd" d="M9.8614 0.28875C9.2146 1.03439 0.0859732 16.2997 0.0823432 16.6419C0.0787132 16.9792 0.750593 17.4255 5.11072 19.9822C7.87859 21.6053 10.2058 22.9337 10.2823 22.9342C10.4572 22.9352 19.773 17.3669 20.1727 17.0222C20.3348 16.8826 20.4252 16.6586 20.3737 16.5244C20.067 15.7248 10.5094 0 10.3303 0C10.2102 0 9.99917 0.13002 9.8614 0.28875ZM9.73072 7.1879V11.9006L8.61697 12.4068C2.05228 15.3905 1.81121 15.4889 2.01928 15.0982C2.33311 14.5088 9.64261 2.48259 9.68947 2.47847C9.71224 2.47665 9.73072 4.59575 9.73072 7.1879ZM14.7371 8.98491C16.7866 12.4293 18.4363 15.2744 18.4033 15.3074C18.3703 15.3404 16.6467 14.5928 14.5733 13.646L10.8032 11.9245L10.7593 7.16414C10.7336 4.35534 10.7762 2.46906 10.8633 2.56311C10.9445 2.65073 12.6878 5.54053 14.7371 8.98491ZM9.69425 19.2956L9.64822 21.4508L5.76494 19.1816C3.62902 17.9337 1.86104 16.8468 1.83613 16.7666C1.81121 16.6863 3.55856 15.822 5.7194 14.8459L9.64822 13.0711L9.69425 15.1058C9.71966 16.2249 9.71966 18.1104 9.69425 19.2956ZM14.8918 14.9297L18.8153 16.7186L14.846 19.0844C12.6629 20.3854 10.8417 21.45 10.7988 21.45C10.7559 21.45 10.7207 19.5522 10.7207 17.2328C10.7207 14.9134 10.7765 13.0437 10.8445 13.0781C10.9124 13.1126 12.7339 13.9458 14.8918 14.9297ZM0.0584181 18.5546C-0.0597219 18.8625 -0.475687 18.237 4.83764 25.74C9.70778 32.6174 9.99703 33 10.3242 33C10.6303 33 20.3732 19.2001 20.3732 18.7666C20.3732 18.5539 20.2557 18.3794 20.0914 18.3477C19.9363 18.3178 17.6605 19.5606 15.0338 21.1093L10.2581 23.925L5.51843 21.12C2.9116 19.5773 0.637403 18.315 0.464648 18.315C0.291728 18.315 0.108908 18.4227 0.0584181 18.5546ZM6.1918 22.7096L9.73072 24.7944V27.7751C9.73072 29.5431 9.67049 30.6921 9.58255 30.5993C9.50104 30.5131 8.48777 29.106 7.33079 27.4725C6.17381 25.839 4.60714 23.6301 3.84929 22.5638C3.09145 21.4974 2.5123 20.625 2.56229 20.625C2.61212 20.625 4.24546 21.5632 6.1918 22.7096ZM17.8652 20.8545C17.4613 21.5566 10.9479 30.6727 10.8445 30.6806C10.7765 30.6857 10.7222 29.372 10.724 27.7613L10.7275 24.8325L14.2303 22.7444C16.157 21.5959 17.7926 20.6493 17.8652 20.6407C17.9378 20.6321 17.9378 20.7283 17.8652 20.8545Z" fill="black"/>
</svg>
