<svg width="34" height="33" viewBox="0 0 34 33" fill="none" xmlns="http://www.w3.org/2000/svg">
<path fill-rule="evenodd" clip-rule="evenodd" d="M13.8021 0.274616C8.20647 1.25657 3.20181 5.34884 1.08173 10.676C-0.745947 15.2684 -0.23791 20.5797 2.45639 25.0489C3.59152 26.9318 6.24536 29.5079 8.18507 30.6098C13.7949 33.7967 20.1992 33.7967 25.809 30.6098C27.7487 29.5079 30.4026 26.9318 31.5377 25.0489C34.8208 19.6033 34.8208 13.3866 31.5377 7.94102C30.4026 6.05811 27.7487 3.48199 25.809 2.3801C22.1006 0.273394 17.9529 -0.453864 13.8021 0.274616ZM21.1876 1.02125C21.9098 1.20996 23.1052 1.64324 23.8441 1.98383C27.5739 3.70317 30.0506 6.09128 31.8328 9.68672C33.0577 12.1578 33.3621 13.5133 33.3621 16.4949C33.3621 19.4766 33.0577 20.8321 31.8328 23.3032C30.0202 26.9597 27.5119 29.3499 23.6855 31.0663C21.3974 32.0926 19.9307 32.3808 16.997 32.3808C13.9254 32.3808 12.529 32.0853 9.98343 30.8963C6.21659 29.1368 3.75427 26.7019 1.98612 22.9875C0.928866 20.7665 0.631957 19.3427 0.631957 16.4949C0.631957 13.5133 0.936419 12.1578 2.16128 9.68672C4.63403 4.69804 8.82043 1.68497 14.7491 0.626375C15.8161 0.435919 19.9089 0.686776 21.1876 1.02125ZM13.8499 2.7851C9.50597 3.69007 5.63122 6.75639 3.75535 10.7732C1.73831 15.0923 2.2913 20.6843 5.11383 24.5117C6.62553 26.5619 8.84759 28.3564 11.1027 29.3489C15.3981 31.2391 21.1326 30.7844 24.9595 28.2501C27.1139 26.8234 29.1977 24.4466 30.2269 22.2423C32.2561 17.8962 31.7101 12.3156 28.8802 8.47818C27.9834 7.26195 26.1996 5.56111 24.9595 4.73976C21.9467 2.7446 17.6623 1.99081 13.8499 2.7851ZM20.8346 3.4853C25.4382 4.75181 29.0968 8.32648 30.4317 12.8623C31.0034 14.8051 31.0034 18.1848 30.4317 20.1276C29.0862 24.6997 25.4493 28.2301 20.7393 29.5362C18.7379 30.0911 15.2562 30.0911 13.2548 29.5362C8.54475 28.2301 4.90792 24.6997 3.56239 20.1276C2.99069 18.1848 2.99069 14.8051 3.56239 12.8623C5.05916 7.77676 9.27218 4.10223 14.7187 3.1325C16.0835 2.88932 19.3542 3.07821 20.8346 3.4853ZM13.7634 6.84996C13.7219 6.97007 13.2726 8.60003 12.765 10.4723C12.2573 12.3445 11.6892 14.387 11.5027 15.0111L11.1633 16.1458L10.126 16.507L9.08857 16.8684L8.69509 18.1654C8.10091 20.1243 8.10091 20.1244 9.17849 19.6897C9.67537 19.4893 10.1156 19.3582 10.157 19.3984C10.1983 19.4385 9.92553 20.5888 9.55075 21.9546L8.86935 24.4379H16.5374H24.2056L24.7535 22.6049L25.3017 20.7719H20.7448C17.2172 20.7719 16.1887 20.7227 16.1914 20.5537C16.1959 20.2814 17.0326 17.1005 17.1227 17.0129C17.1593 16.9776 17.7903 16.7261 18.5253 16.4537L19.8616 15.9587L20.1562 14.8302C20.3183 14.2097 20.5044 13.4871 20.5698 13.2246L20.6891 12.7473L19.4117 13.1945C18.7091 13.4407 18.1091 13.6161 18.0786 13.5845C18.0478 13.5531 18.3775 12.2382 18.8109 10.6629C19.2445 9.0876 19.6498 7.53602 19.7118 7.21516L19.8246 6.63175H16.8316C14.5973 6.63175 13.8195 6.68709 13.7634 6.84996ZM19.0652 7.5472C19.0652 7.66678 18.6551 9.24576 18.1539 11.056C17.6529 12.8665 17.2763 14.3802 17.3171 14.4198C17.358 14.4595 17.9299 14.2952 18.5879 14.0548L19.7845 13.6175L19.7744 14.0089C19.7689 14.224 19.6676 14.6632 19.5496 14.9846C19.3617 15.4962 19.1657 15.6322 17.9786 16.0746L16.6221 16.58L16.1065 18.6324C15.8229 19.7611 15.5539 20.822 15.5087 20.9901C15.4319 21.275 15.7301 21.2956 19.9433 21.2956C23.4382 21.2956 24.4597 21.345 24.4577 21.5138C24.4565 21.6339 24.3101 22.2034 24.1324 22.7795L23.8094 23.8269L16.7411 23.8726L9.67286 23.9182L9.79011 23.3116C9.85467 22.9778 10.18 21.7395 10.5131 20.56C10.8461 19.3804 11.0936 18.3901 11.063 18.3594C11.0324 18.3286 10.6697 18.4707 10.257 18.6751C9.13479 19.231 8.96035 19.1201 9.32379 18.0816C9.60704 17.272 9.68005 17.2049 10.6375 16.8766L11.6512 16.5286L12.2346 14.4169C12.5554 13.2555 13.0957 11.284 13.4352 10.0359C13.7746 8.78769 14.0851 7.66835 14.1252 7.54824C14.2299 7.23559 19.0652 7.23454 19.0652 7.5472Z" fill="#00AEFF"/>
</svg>
