<svg width="32" height="33" viewBox="0 0 32 33" fill="none" xmlns="http://www.w3.org/2000/svg">
<path fill-rule="evenodd" clip-rule="evenodd" d="M12.6824 0.269223C6.25232 1.79358 1.44134 7.00099 0.326663 13.6431C-0.109384 16.2413 -0.109154 16.7619 0.328959 19.393C1.34151 25.4742 5.67123 30.5385 11.4512 32.4027C13.9215 33.1995 18.1633 33.199 20.6311 32.4018C25.924 30.6921 29.7656 26.6106 31.443 20.9148C32.1857 18.3936 32.1857 14.6123 31.443 12.0911C29.7803 6.44509 25.9291 2.323 20.7458 0.642203C18.6831 -0.0264896 14.7064 -0.210595 12.6824 0.269223ZM20.7458 1.22862C27.2228 3.48391 31.4175 9.48784 31.4175 16.5029C31.4175 20.6591 30.0984 24.2484 27.4796 27.2182C21.2712 34.2588 11.0486 34.3327 4.73923 27.3828C3.04002 25.5112 1.5274 22.6552 0.982112 20.289C0.498329 18.1909 0.498329 14.815 0.982112 12.7168C2.06856 8.00283 5.8328 3.4603 10.1561 1.64572C13.5511 0.220812 17.4144 0.0686632 20.7458 1.22862ZM13.5742 2.56195C8.56199 3.49559 4.14759 7.76746 2.85138 12.9381C2.40133 14.7336 2.40133 18.2722 2.85138 20.0677C3.68836 23.4064 6.37625 27.0961 9.15616 28.7221C11.5519 30.1231 13.118 30.5357 16.0411 30.5357C18.9642 30.5357 20.5303 30.1231 22.9261 28.7221C25.706 27.0961 28.3939 23.4064 29.2309 20.0677C29.6809 18.2722 29.6809 14.7336 29.2309 12.9381C28.0981 8.41898 24.5904 4.56445 20.2292 3.04606C18.5631 2.46608 15.3455 2.23214 13.5742 2.56195ZM19.4992 3.4095C25.2167 5.15564 29.1225 10.4701 29.1225 16.5029C29.1225 21.0538 26.7977 25.4628 23.103 27.9189C15.9505 32.6732 6.39644 29.1463 3.60735 20.7216C2.8539 18.4463 2.8539 14.5596 3.60735 12.2842C4.99627 8.08845 8.20719 4.8585 12.3627 3.47652C14.0365 2.91991 17.7807 2.88461 19.4992 3.4095ZM17.6988 7.24066C16.0652 8.07724 15.0566 10.189 15.5147 11.8132C15.6503 12.294 15.9016 13.0455 16.0733 13.4831C16.3654 14.2278 16.3505 14.3082 15.8435 14.7351C15.0483 15.4047 14.7656 15.3153 13.546 14.0075C12.3198 12.6923 11.6189 12.3295 10.3037 12.3295C8.57783 12.3295 7.34886 13.1618 6.60643 14.8336C6.06918 16.0434 6.07056 16.9615 6.61171 18.1999C7.89117 21.1275 11.9331 21.5241 13.5754 18.8832C14.1404 17.9748 14.6504 17.7022 15.3522 17.9335C16.003 18.1482 16.1354 19.0122 15.715 20.2992C15.2259 21.7962 15.2583 22.5273 15.869 23.7836C17.0853 26.2855 20.0404 26.907 21.995 25.0721C23.1358 24.0011 23.4663 23.1288 23.3385 21.5269C23.1698 19.4123 21.6345 17.8145 19.7716 17.8145C18.4915 17.8145 17.7151 16.6803 18.3178 15.6911C18.43 15.5068 19.1049 15.2738 19.8178 15.1734C22.0689 14.856 23.3851 13.3171 23.3851 11.0029C23.3851 7.99639 20.26 5.92879 17.6988 7.24066ZM21.2996 7.98185C23.4369 9.62615 23.4438 12.4047 21.3148 14.0423C20.9967 14.287 20.1884 14.5772 19.5185 14.6874C18.0499 14.9285 17.5558 15.3856 17.5558 16.5029C17.5558 17.6374 18.0687 18.0952 19.5786 18.308C21.094 18.5219 22.0393 19.1641 22.5798 20.3477C23.0679 21.4168 22.9435 23.0735 22.3067 23.9825C21.6274 24.9524 19.9926 25.7358 19.0246 25.5555C16.5554 25.0953 15.3763 22.8572 16.2803 20.3465C16.9474 18.4935 16.4118 17.3376 14.8856 17.3376C14.1478 17.3376 13.9123 17.4881 13.1621 18.4394C11.7754 20.1977 10.4932 20.568 8.77818 19.7054C6.21789 18.4174 6.16832 14.6425 8.6935 13.2482C10.2862 12.3687 11.554 12.7359 13.2775 14.576C14.4537 15.8314 15.3249 16.0026 16.1986 15.1498C16.8462 14.5173 16.857 14.1382 16.2782 12.3527C15.5938 10.2419 16.1832 8.62908 17.9524 7.77103C19.0879 7.22038 20.419 7.30409 21.2996 7.98185Z" fill="#00AAE4"/>
</svg>
