<svg width="36" height="41" viewBox="0 0 36 41" fill="none" xmlns="http://www.w3.org/2000/svg">
<path fill-rule="evenodd" clip-rule="evenodd" d="M8.98798 1.02488C9.43379 0.271797 10.3942 0.029655 11.133 0.484036L17.7717 4.56659C17.8279 4.60117 17.8812 4.63879 17.9316 4.67912C17.9922 4.70522 18.0518 4.73551 18.1102 4.77008C18.8562 5.2121 19.1094 6.18686 18.6758 6.94726L14.8756 13.6103C14.4419 14.3707 13.4856 14.6288 12.7395 14.1868C11.9935 13.7448 11.7402 12.77 12.1739 12.0096L14.3424 8.20754C7.92671 9.76777 3.15625 15.649 3.15625 22.6659C3.15625 30.8749 9.68543 37.5297 17.7396 37.5297C25.7937 37.5297 32.3229 30.8749 32.3229 22.6659C32.3229 18.0855 30.2902 13.9891 27.0941 11.2625L27.0898 11.268L25.9977 10.3618C25.3284 9.80645 25.2285 8.80278 25.7745 8.12C26.3205 7.43722 27.3057 7.33389 27.9749 7.88921L28.78 8.55725L28.7821 8.55511C32.8449 11.8623 35.4479 16.9543 35.4479 22.6659C35.4479 32.634 27.5196 40.7148 17.7396 40.7148C7.95954 40.7148 0.03125 32.634 0.03125 22.6659C0.03125 14.4044 5.47714 7.43933 12.9096 5.29652L9.51862 3.21118C8.77975 2.7568 8.54218 1.77796 8.98798 1.02488Z" fill="#0DBC0D"/>
</svg>
