<svg width="172" height="168" viewBox="0 0 172 168" fill="none" xmlns="http://www.w3.org/2000/svg">
<path fill-rule="evenodd" clip-rule="evenodd" d="M81.1995 0.111352C67.647 2.01078 58.8467 6.10578 50.2277 14.5229C40.692 23.835 35.8615 34.6488 35.3888 47.7404C35.1174 55.251 36.2133 61.7766 38.7961 68.0339L39.5752 69.9219L38.1856 70.2798C9.48138 77.6728 -6.72187 106.952 2.67352 134.451C7.59861 148.866 19.75 160.739 34.5031 165.551C40.2288 167.418 43.913 167.979 50.588 167.999C57.6643 168.021 60.976 167.532 66.9406 165.585C76.709 162.396 84.7699 156.827 91.1546 148.855L92.0272 147.765L93.8457 148.901C105.382 156.104 120.464 158.501 133.667 155.229C151.075 150.914 164.85 138.094 169.984 121.431C171.573 116.273 172.002 113.22 172 107.067C171.998 100.324 171.471 96.973 169.515 91.2534C166.856 83.4739 163.322 77.9722 157.078 71.8874C151.294 66.2515 145.611 62.6827 138.539 60.2459L136.002 59.3713L136.455 56.5138C137.095 52.4753 136.802 43.4649 135.9 39.4597C133.677 29.5905 129.231 21.6562 121.927 14.5229C114.501 7.27094 106.187 2.90216 95.9815 0.88999C92.7619 0.254984 83.6127 -0.226857 81.1995 0.111352ZM92.8531 8.26979C104.753 10.1571 115.435 16.8542 121.833 26.4384C127.197 34.4723 129.503 42.6012 128.998 51.6845C128.677 57.438 128.577 57.8357 127.497 57.6375C127.01 57.5481 125.27 57.3776 123.629 57.2586L120.646 57.0423L120.86 55.678C122.023 48.2535 120.957 40.6682 117.896 34.5933C113.357 25.5865 104.403 18.495 94.496 16.0604C88.6916 14.6343 81.0027 14.8841 75.3127 16.6839C72.3982 17.6059 67.3278 20.0585 65.3242 21.5149C57.6542 27.0919 52.428 35.5576 51.0754 44.5963C50.5392 48.1798 50.8493 54.4783 51.734 57.9771C52.4337 60.7445 54.3424 65.1133 55.9076 67.5311L56.8038 68.9158L52.2218 68.7561C49.7016 68.6683 47.5255 68.5276 47.3865 68.4435C47.2473 68.3597 47.0528 67.8821 46.9546 67.3828C46.8564 66.8836 46.3104 65.2481 45.7419 63.7486C42.706 55.7447 42.4524 45.508 45.0833 37.1448C46.1856 33.6401 49.1452 27.9349 51.4397 24.8917C58.006 16.1824 68.0853 10.0821 78.8236 8.31844C82.4431 7.72386 89.2628 7.7002 92.8531 8.26979ZM93.6177 19.9993C97.4751 20.7576 100.854 22.1877 104.319 24.5288C106.405 25.9389 110.673 29.7535 109.332 29.0094C109.079 28.869 109.557 29.577 110.396 30.5831C113.386 34.1696 115.988 39.6329 116.882 44.2022C117.46 47.1504 117.48 52.2157 116.925 55.1235C116.464 57.5393 116.879 57.3013 111.475 58.2528C109.809 58.546 106.873 59.299 104.95 59.9258C103.027 60.5526 101.413 61.0255 101.364 60.9766C101.315 60.9276 101.424 60.0855 101.607 59.1054C102.492 54.3573 99.8937 49.2957 95.3982 47.012C93.7186 46.1588 93.3778 46.1144 87.1946 45.9451C81.3327 45.7844 80.6569 45.7055 79.794 45.0794C77.918 43.718 77.9177 40.2597 79.7937 38.8976C80.6724 38.2597 81.2994 38.1966 88.2808 38.0444L95.8194 37.8801L96.6919 37.0265C97.8215 35.9215 98.1246 33.9274 97.3775 32.516C96.593 31.0337 95.269 30.4848 92.477 30.4848C90.1169 30.4848 90.0953 30.4769 89.9009 29.526C89.7929 28.9988 89.2567 28.1486 88.7094 27.6362C87.8795 26.8598 87.4372 26.7089 86.0509 26.729C84.7047 26.7487 84.1994 26.9295 83.3988 27.6792C82.8545 28.1883 82.3187 29.01 82.2073 29.505C82.03 30.2929 81.8033 30.4309 80.3824 30.615C76.9263 31.0629 73.2371 33.6099 71.6658 36.6327C70.7317 38.4296 70.1632 41.4827 70.434 43.2474C71.0805 47.4604 73.262 50.4871 76.9199 52.2475L79.165 53.3279L85.5086 53.4923L91.8523 53.6566L92.8332 54.7301C94.2148 56.2416 94.2148 58.3021 92.8332 59.814L91.8526 60.8875L84.3394 61.0518C76.2377 61.229 75.6992 61.3401 74.8114 63.0173C74.1676 64.2341 74.1666 65.4361 74.8081 66.757C75.5401 68.2644 76.5045 68.7071 79.4213 68.8744L82.0162 69.0233L82.3893 70.127C82.5942 70.734 83.1398 71.5212 83.602 71.8762L84.442 72.5217L82.5242 74.7571C81.4696 75.9866 80.491 77.1176 80.3498 77.2705C80.2085 77.423 78.6227 76.7025 76.8254 75.6691C73.2973 73.6402 69.7572 72.1467 65.1833 70.757C62.3428 69.8939 62.2557 69.8364 60.7224 67.7957C56.5673 62.2666 54.4682 55.0837 54.9099 47.9047C55.9282 31.3466 70.7243 18.2784 87.4227 19.1881C88.9953 19.2739 91.783 19.6391 93.6177 19.9993ZM127.807 65.4548C132.481 66.196 135.781 67.2192 140.081 69.2593C149.31 73.6376 156.093 80.4228 160.599 89.7819C167.947 105.044 164.456 124.242 152.111 136.462C140.752 147.706 124.473 151.788 108.785 147.325C105.328 146.342 98.9441 143.229 96.0716 141.126C89.5968 136.385 84.1416 129.922 81.9924 124.444C79.3887 117.808 78.3395 112.821 78.3415 107.091C78.3455 96.1615 82.4226 86.0205 89.9601 78.1914C96.6213 71.2731 105.553 66.7284 115.175 65.3628C118.362 64.9102 124.663 64.9562 127.807 65.4548ZM116.213 72.8964C108.441 74.0938 101.294 77.7092 95.9859 83.1298C94.5115 84.6351 92.7575 86.6805 92.0884 87.6747C80.3699 105.084 86.4694 128.186 105.278 137.63C110.415 140.21 115.053 141.268 121.23 141.269C131.223 141.271 139.135 138.086 146.14 131.241C153.095 124.446 156.383 116.679 156.383 107.043C156.383 97.2038 152.864 89.0503 145.643 82.1546C141.652 78.3436 135.37 74.9319 129.808 73.5554C126.53 72.7439 119.433 72.4001 116.213 72.8964ZM57.5987 76.9911C61.3084 77.5373 66.7784 79.2189 69.9879 80.7991C71.6917 81.6379 75.4082 83.7865 75.9239 84.2309C75.9827 84.2812 75.6615 85.0397 75.2101 85.9167C74.759 86.7932 74.0498 88.4284 73.6341 89.5502L72.8785 91.59L71.3927 90.4813C69.2442 88.8784 64.4651 86.5572 61.3444 85.6011C57.3716 84.384 53.6013 83.9387 49.1021 84.1549C36.1211 84.7791 25.066 91.8762 19.3006 103.287C13.6647 114.441 14.5491 127.162 21.7058 137.878C23.4534 140.495 28.5675 145.412 31.4971 147.293C34.3901 149.15 38.3171 150.865 41.9215 151.844C44.1727 152.455 45.4149 152.553 50.9243 152.556C56.939 152.559 57.4941 152.506 60.3433 151.657C68.1728 149.324 74.6675 144.958 79.0809 139.06L80.5963 137.035L83.3033 140.084L86.0102 143.134L83.7423 145.736C77.3397 153.082 68.7914 157.95 58.9002 159.883C55.3553 160.575 46.9771 160.669 43.6169 160.054C37.5474 158.941 31.6532 156.554 26.2733 153.03C21.3667 149.816 15.3891 143.292 12.6176 138.127C11.2269 135.535 9.48778 130.519 8.68078 126.773C7.65546 122.014 7.65075 114.883 8.66968 110.12C10.7089 100.587 15.5943 92.5323 23.0473 86.4153C29.3012 81.2823 36.7468 77.987 44.655 76.852C47.7781 76.4037 54.0696 76.4714 57.5987 76.9911ZM128.294 77.1262C131.725 77.8115 134.081 78.6634 137.126 80.3196C140.188 81.9847 144.278 85.3053 144.815 86.5625C145.066 87.1495 145.412 87.7145 145.584 87.8184C146.287 88.243 148.945 92.6233 150.085 95.2343C151.761 99.0766 152.34 101.411 152.575 105.283C153.671 123.272 138.427 138.389 120.053 137.534C115.154 137.306 111.458 136.299 106.281 133.782C102.97 132.171 102.027 131.52 99.5196 129.103C93.5686 123.367 91.0201 118.132 90.1135 109.783C88.4773 94.7094 99.4446 80.2706 115.007 77.0101C118.201 76.3406 124.643 76.3972 128.294 77.1262ZM113.728 93.3129C109.602 98.3647 106.156 102.677 106.071 102.896C105.973 103.145 108.782 104.687 113.572 107.014L121.23 110.735L128.967 107.045C133.222 105.016 136.755 103.316 136.817 103.266C136.918 103.186 122.507 85.4118 121.605 84.5043C121.326 84.2243 119.3 86.4902 113.728 93.3129ZM59.4555 88.9546C64.27 90.1323 71.6194 94.2079 71.6063 95.6928C71.6026 96.0735 71.3685 97.6419 71.0852 99.1785C70.3926 102.938 70.4007 111.243 71.1007 115.119C72.1539 120.951 73.952 126.025 76.7655 131.102L78.1545 133.608L76.8436 135.539C71.2477 143.781 61.0362 149.138 50.9173 149.138C43.3919 149.138 34.7218 145.791 29.3304 140.804C22.5915 134.571 19.6878 127.835 19.6757 118.406C19.6696 113.683 19.9875 111.843 21.5107 107.791C23.5264 102.429 27.3965 97.4385 32.2866 93.8966C34.9529 91.9653 39.9873 89.5791 42.9744 88.8307C47.7259 87.6402 54.2842 87.6895 59.4555 88.9546ZM48.7001 96.037C47.9123 96.4725 47.5366 97.0864 46.9297 98.932C46.7619 99.4424 46.2263 99.5072 42.1668 99.5072C39.6509 99.5072 37.3015 99.6593 36.9456 99.8457C35.3088 100.702 34.7389 104.002 35.9651 105.526C36.3408 105.992 37.1734 106.56 37.8152 106.786L38.9825 107.199V118.637C38.9825 128.747 38.9219 130.074 38.4611 130.074C37.5165 130.074 36.0929 130.996 35.6842 131.873C34.9535 133.44 35.1799 135.211 36.2628 136.396L37.2437 137.469L42.1496 137.576C47.0078 137.681 47.0559 137.69 47.0559 138.435C47.0559 139.536 48.2605 140.852 49.6007 141.213C51.7448 141.792 54.1961 140.527 54.6243 138.621C54.8265 137.722 54.8393 137.718 58.258 137.567C63.6352 137.329 66.7808 135.588 68.9263 131.663C69.9052 129.872 70.0828 129.191 70.1978 126.787C70.3805 122.965 69.5378 120.764 66.9079 118.194L65.004 116.334L65.6024 114.845C66.993 111.386 66.5954 107.554 64.5179 104.391C62.8279 101.818 59.6856 99.9085 56.6332 99.6008C55.0256 99.4388 54.8419 99.3369 54.6738 98.5149C54.3323 96.8468 53.0914 95.8217 51.2409 95.6794C50.1765 95.5975 49.2629 95.726 48.7001 96.037ZM57.0463 107.71C59.2036 108.995 59.2016 112.699 57.043 113.985C56.1233 114.533 55.3341 114.624 51.513 114.625L47.0559 114.626V110.847V107.067L51.513 107.068C55.3391 107.069 56.1226 107.16 57.0463 107.71ZM128.972 110.904L121.24 114.707L113.748 111.051C109.628 109.04 106.181 107.395 106.088 107.395C105.929 107.395 120.504 128.928 121.075 129.537C121.221 129.694 124.837 124.702 129.109 118.444C133.381 112.187 136.838 107.075 136.79 107.084C136.743 107.094 133.225 108.813 128.972 110.904ZM59.9403 122.537C63.3637 123.465 63.3637 128.795 59.9403 129.723C59.2369 129.914 56.0503 130.071 52.8586 130.072L47.0559 130.074V126.13V122.186L52.8586 122.188C56.0503 122.189 59.2369 122.346 59.9403 122.537Z" fill="#0DBC0D"/>
</svg>
